<?xml version="1.0" standalone="no"?><svg xmlns="http://www.w3.org/2000/svg"  viewBox="0 0 1440 320"><path fill="#04347c" fill-opacity="1" d="M0,160L21.8,170.7C43.6,181,87,203,131,218.7C174.5,235,218,245,262,234.7C305.5,224,349,192,393,192C436.4,192,480,224,524,213.3C567.3,203,611,149,655,138.7C698.2,128,742,160,785,176C829.1,192,873,192,916,165.3C960,139,1004,85,1047,80C1090.9,75,1135,117,1178,144C1221.8,171,1265,181,1309,176C1352.7,171,1396,149,1418,138.7L1440,128L1440,320L1418.2,320C1396.4,320,1353,320,1309,320C1265.5,320,1222,320,1178,320C1134.5,320,1091,320,1047,320C1003.6,320,960,320,916,320C872.7,320,829,320,785,320C741.8,320,698,320,655,320C610.9,320,567,320,524,320C480,320,436,320,393,320C349.1,320,305,320,262,320C218.2,320,175,320,131,320C87.3,320,44,320,22,320L0,320Z"></path></svg>